# xmcd CD database file
#
# Track frame offsets:
#	150
#	12975
#	25017
#	37030
#	47839
#	60480
#	73030
#	86615
#	98325
#	110050
#	123477
#	134190
#	146795
#	159500
#
# Disc length: 2303 seconds
#
# Revision: 0
# Processed by: cddbd v1.5PL3 Copyright (c) Steve Scherf et al.
# Submitted via: CDex 1.51
#
DISCID=c508fd0e
DTITLE=GOLDEN SELECT - COUNTRY and WESTERN GOLDEN SELECT
DYEAR=1900
DGENRE=Country
TTITLE0=YOU ARE MY SUNSHINE
TTITLE1=TIME CHANGES EVERYTHING
TTITLE2=COWBOY COUNTRY
TTITLE3=MY CHICKASHAY GAL
TTITLE4=JINGLE! JANGLE! JINGLE!
TTITLE5=THERE'S A STAR-SPANLED BANNER WAVING SOMEWHERE
TTITLE6=TOO LATE
TTITLE7=BOUQUET OF ROSES
TTITLE8=WABASH CANNON BALL
TTITLE9=I GOT TEXAS IN MY SOUL
TTITLE10=TRY ME ONE MORE TIME
TTITLE11=GARDEN IN THE SKY
TTITLE12=STEEL GUITAR
TTITLE13=MOON OVER MONTANA
EXTD=
EXTT0=
EXTT1=
EXTT2=
EXTT3=
EXTT4=
EXTT5=
EXTT6=
EXTT7=
EXTT8=
EXTT9=
EXTT10=
EXTT11=
EXTT12=
EXTT13=
PLAYORDER=
